<?xml version="1.0" encoding="UTF-8"?>
<svg xmlns="http://www.w3.org/2000/svg" version="1.1" width="344px" height="192px" style="shape-rendering:geometricPrecision; text-rendering:geometricPrecision; image-rendering:optimizeQuality; fill-rule:evenodd; clip-rule:evenodd"
  xmlns:xlink="http://www.w3.org/1999/xlink">
  <g>
    <path style="opacity:0.97" fill="#875132" d="M 59.5,-0.5 C 65.8333,-0.5 72.1667,-0.5 78.5,-0.5C 115.562,7.56729 135.562,30.5673 138.5,68.5C 138.417,76.33 137.251,83.9967 135,91.5C 120.089,129.032 98.9223,162.365 71.5,191.5C 69.8333,191.5 68.1667,191.5 66.5,191.5C 42.8315,165.882 23.3315,137.215 8,105.5C 4.4223,96.6068 1.58897,87.6068 -0.5,78.5C -0.5,72.1667 -0.5,65.8333 -0.5,59.5C 6.49408,26.5059 26.4941,6.50592 59.5,-0.5 Z M 64.5,34.5 C 87.6935,34.5289 100.693,46.0289 103.5,69C 101.333,89.8333 89.8333,101.333 69,103.5C 48.1667,101.333 36.6667,89.8333 34.5,69C 36.2075,50.1348 46.2075,38.6348 64.5,34.5 Z"/>
  </g>
  <g>
    <path style="opacity:0.865" fill="#865232" d="M 157.5,44.5 C 167.5,44.5 177.5,44.5 187.5,44.5C 187.274,47.2492 187.607,49.9159 188.5,52.5C 187.68,54.1112 186.346,54.7778 184.5,54.5C 184.703,52.6096 184.037,51.1096 182.5,50C 178.179,49.501 173.846,49.3343 169.5,49.5C 169.5,53.1667 169.5,56.8333 169.5,60.5C 172.728,60.7006 175.895,60.3672 179,59.5C 180.25,57.2942 182.084,55.9609 184.5,55.5C 184.5,60.1667 184.5,64.8333 184.5,69.5C 181.891,69.1699 180.224,67.6699 179.5,65C 176.183,64.5017 172.85,64.335 169.5,64.5C 169.207,68.4367 169.54,72.27 170.5,76C 177.405,77.9794 183.072,76.3127 187.5,71C 188.448,70.5172 189.448,70.3505 190.5,70.5C 190.223,73.8898 189.223,77.0565 187.5,80C 177.506,80.4998 167.506,80.6665 157.5,80.5C 157.5,79.5 157.5,78.5 157.5,77.5C 159.144,77.7135 160.644,77.3802 162,76.5C 162.667,67.5 162.667,58.5 162,49.5C 160.644,48.6198 159.144,48.2865 157.5,48.5C 157.5,47.1667 157.5,45.8333 157.5,44.5 Z"/>
  </g>
  <g>
    <path style="opacity:0.872" fill="#865232" d="M 210.5,44.5 C 211.822,44.33 212.989,44.6634 214,45.5C 218.667,55.5 223.333,65.5 228,75.5C 229.11,77.0368 230.61,77.7035 232.5,77.5C 232.5,78.5 232.5,79.5 232.5,80.5C 226.833,80.5 221.167,80.5 215.5,80.5C 215.5,79.5 215.5,78.5 215.5,77.5C 216.833,77.5 218.167,77.5 219.5,77.5C 219.456,71.3639 216.456,68.6972 210.5,69.5C 204.544,68.6972 201.544,71.3639 201.5,77.5C 202.833,77.5 204.167,77.5 205.5,77.5C 205.5,78.5 205.5,79.5 205.5,80.5C 200.833,80.5 196.167,80.5 191.5,80.5C 191.5,79.5 191.5,78.5 191.5,77.5C 193.39,77.7035 194.89,77.0368 196,75.5C 200.847,65.1404 205.681,54.8071 210.5,44.5 Z M 209.5,57.5 C 211.858,59.168 213.524,61.5013 214.5,64.5C 211.894,65.6517 209.227,65.8184 206.5,65C 207.642,62.5501 208.642,60.0501 209.5,57.5 Z"/>
  </g>
  <g>
    <path style="opacity:0.836" fill="#865232" d="M 228.5,44.5 C 239.167,44.5 249.833,44.5 260.5,44.5C 260.788,47.8663 260.954,51.1996 261,54.5C 259.989,55.3366 258.822,55.67 257.5,55.5C 257.822,53.2776 257.155,51.4443 255.5,50C 253.19,49.5034 250.857,49.3367 248.5,49.5C 248.334,58.5062 248.5,67.5062 249,76.5C 250.356,77.3802 251.856,77.7135 253.5,77.5C 253.5,78.5 253.5,79.5 253.5,80.5C 247.5,80.5 241.5,80.5 235.5,80.5C 235.5,79.5 235.5,78.5 235.5,77.5C 237.144,77.7135 238.644,77.3802 240,76.5C 240.5,67.5062 240.666,58.5062 240.5,49.5C 235.175,48.3137 232.175,50.3137 231.5,55.5C 230.5,55.5 229.5,55.5 228.5,55.5C 228.5,51.8333 228.5,48.1667 228.5,44.5 Z"/>
  </g>
  <g>
    <path style="opacity:0.857" fill="#865232" d="M 275.5,44.5 C 295.426,43.0309 303.259,52.0309 299,71.5C 292.54,81.3189 283.707,84.1523 272.5,80C 263.287,73.696 260.454,65.196 264,54.5C 266.818,49.8388 270.651,46.5055 275.5,44.5 Z M 278.5,48.5 C 288.332,48.4187 292.999,53.4187 292.5,63.5C 292.345,74.7141 287.011,78.8808 276.5,76C 274.383,74.2691 272.883,72.1024 272,69.5C 271.161,64.0788 271.494,58.7455 273,53.5C 274.73,51.5981 276.563,49.9314 278.5,48.5 Z"/>
  </g>
  <g>
    <path style="opacity:0.833" fill="#865232" d="M 343.5,45.5 C 343.5,46.1667 343.5,46.8333 343.5,47.5C 341.958,48.3007 340.292,48.634 338.5,48.5C 338.5,59.5 338.5,70.5 338.5,81.5C 337.127,81.6567 335.793,81.49 334.5,81C 328.04,72.8708 321.206,65.0374 314,57.5C 313.333,63.8333 313.333,70.1667 314,76.5C 315.356,77.3802 316.856,77.7135 318.5,77.5C 318.5,78.5 318.5,79.5 318.5,80.5C 313.5,80.5 308.5,80.5 303.5,80.5C 303.5,79.5 303.5,78.5 303.5,77.5C 305.144,77.7135 306.644,77.3802 308,76.5C 308.667,67.8333 308.667,59.1667 308,50.5C 306.103,48.9837 303.936,48.317 301.5,48.5C 301.5,47.1667 301.5,45.8333 301.5,44.5C 305.514,44.3345 309.514,44.5012 313.5,45C 320.118,52.4066 326.618,59.9066 333,67.5C 333.667,61.5 333.667,55.5 333,49.5C 331.644,48.6198 330.144,48.2865 328.5,48.5C 328.5,47.1667 328.5,45.8333 328.5,44.5C 333.595,44.2213 338.595,44.5546 343.5,45.5 Z"/>
  </g>
  <g>
    <path style="opacity:0.887" fill="#865232" d="M 157.5,104.5 C 165.228,104.189 172.895,104.689 180.5,106C 187.808,110.259 189.142,115.926 184.5,123C 179.777,125.235 174.777,126.069 169.5,125.5C 169.335,129.182 169.501,132.848 170,136.5C 171.356,137.38 172.856,137.714 174.5,137.5C 174.5,138.5 174.5,139.5 174.5,140.5C 168.463,140.829 162.463,140.496 156.5,139.5C 158.346,138.235 160.18,136.902 162,135.5C 162.667,127.167 162.667,118.833 162,110.5C 160.663,108.996 158.996,107.996 157,107.5C 156.53,106.423 156.697,105.423 157.5,104.5 Z M 169.5,109.5 C 174.713,108.762 177.713,110.928 178.5,116C 177.463,120.848 174.463,122.682 169.5,121.5C 169.5,117.5 169.5,113.5 169.5,109.5 Z"/>
  </g>
  <g>
    <path style="opacity:0.87" fill="#865232" d="M 202.5,104.5 C 203.822,104.33 204.989,104.663 206,105.5C 210.667,115.5 215.333,125.5 220,135.5C 221.11,137.037 222.61,137.703 224.5,137.5C 224.5,138.5 224.5,139.5 224.5,140.5C 218.833,140.5 213.167,140.5 207.5,140.5C 207.5,139.5 207.5,138.5 207.5,137.5C 208.978,137.762 210.311,137.429 211.5,136.5C 210.764,134.459 209.931,132.459 209,130.5C 204.921,129.371 200.755,129.204 196.5,130C 194.798,132.235 193.798,134.735 193.5,137.5C 194.833,137.5 196.167,137.5 197.5,137.5C 197.5,138.5 197.5,139.5 197.5,140.5C 192.833,140.5 188.167,140.5 183.5,140.5C 183.5,139.5 183.5,138.5 183.5,137.5C 185.39,137.703 186.89,137.037 188,135.5C 192.847,125.14 197.681,114.807 202.5,104.5 Z M 201.5,117.5 C 203.858,119.168 205.524,121.501 206.5,124.5C 203.833,125.833 201.167,125.833 198.5,124.5C 199.788,122.261 200.788,119.928 201.5,117.5 Z"/>
  </g>
  <g>
    <path style="opacity:0.842" fill="#865232" d="M 225.5,104.5 C 231.842,104.334 238.175,104.5 244.5,105C 255.828,106.161 258.828,111.661 253.5,121.5C 252.088,122.806 250.421,123.64 248.5,124C 251.595,128.185 254.928,132.185 258.5,136C 261.624,137.687 264.791,137.854 268,136.5C 268.5,127.173 268.666,117.839 268.5,108.5C 267.127,108.657 265.793,108.49 264.5,108C 263.167,107 263.167,106 264.5,105C 270.157,104.501 275.824,104.334 281.5,104.5C 281.5,105.833 281.5,107.167 281.5,108.5C 279.856,108.286 278.356,108.62 277,109.5C 276.179,112.554 276.345,115.554 277.5,118.5C 280.985,115.516 284.318,112.349 287.5,109C 284.876,108.424 284.209,107.09 285.5,105C 290.489,104.501 295.489,104.334 300.5,104.5C 300.5,105.833 300.5,107.167 300.5,108.5C 298.345,108.372 296.345,108.872 294.5,110C 290.8,114.035 286.8,117.702 282.5,121C 287.467,124.966 292.134,129.299 296.5,134C 299.072,136.287 302.072,137.453 305.5,137.5C 305.5,138.5 305.5,139.5 305.5,140.5C 298.833,140.5 292.167,140.5 285.5,140.5C 285.5,139.5 285.5,138.5 285.5,137.5C 286.552,137.649 287.552,137.483 288.5,137C 284.761,133.383 280.928,129.883 277,126.5C 276.333,129.833 276.333,133.167 277,136.5C 278.356,137.38 279.856,137.714 281.5,137.5C 281.5,138.5 281.5,139.5 281.5,140.5C 271.494,140.666 261.494,140.5 251.5,140C 248.036,134.705 244.036,129.871 239.5,125.5C 238.341,129.122 238.175,132.789 239,136.5C 240.356,137.38 241.856,137.714 243.5,137.5C 243.5,138.5 243.5,139.5 243.5,140.5C 237.5,140.5 231.5,140.5 225.5,140.5C 225.5,139.5 225.5,138.5 225.5,137.5C 227.144,137.714 228.644,137.38 230,136.5C 230.667,127.5 230.667,118.5 230,109.5C 228.644,108.62 227.144,108.286 225.5,108.5C 225.5,107.167 225.5,105.833 225.5,104.5 Z M 238.5,109.5 C 243.463,108.318 246.463,110.152 247.5,115C 246.346,119.572 243.346,121.739 238.5,121.5C 238.5,117.5 238.5,113.5 238.5,109.5 Z"/>
  </g>
</svg>
