<?xml version="1.0" standalone="no"?>
<!DOCTYPE svg PUBLIC "-//W3C//DTD SVG 20010904//EN"
 "http://www.w3.org/TR/2001/REC-SVG-20010904/DTD/svg10.dtd">
<svg version="1.0" xmlns="http://www.w3.org/2000/svg"
 width="220.000000pt" height="220.000000pt" viewBox="0 0 220.000000 220.000000"
 preserveAspectRatio="xMidYMid meet">
<metadata>
Created by potrace 1.14, written by Peter Selinger 2001-2017
</metadata>
<g transform="translate(0.000000,220.000000) scale(0.100000,-0.100000)"
fill="#000000" stroke="none">
<path d="M1070 2028 c0 -39 3 -68 8 -64 4 4 7 37 7 72 0 35 -3 64 -7 64 -5 0
-8 -32 -8 -72z"/>
<path d="M1030 1913 l-35 -35 37 26 c20 15 38 23 40 19 3 -4 4 -41 3 -81 -1
-51 -6 -76 -16 -83 -10 -6 -10 -9 -1 -9 9 0 12 -29 12 -110 0 -81 -3 -110 -12
-110 -7 0 -5 -5 5 -11 13 -8 33 -2 90 28 39 21 74 39 77 41 3 2 5 56 5 119 l0
116 -50 39 c-27 22 -63 50 -80 63 -16 14 -32 24 -35 24 -3 -1 -21 -17 -40 -36z
m173 -179 c3 -4 1 -16 -4 -27 -9 -15 -13 -17 -19 -7 -14 23 5 51 23 34z m-59
-33 c3 -4 -1 -17 -9 -27 -14 -18 -14 -18 -15 9 0 26 13 36 24 18z m62 -58 c-3
-17 -26 -26 -26 -10 0 4 0 12 0 17 0 6 6 10 14 10 8 0 13 -8 12 -17z m-56 -17
c0 -2 -3 -11 -6 -20 -9 -23 -24 -20 -24 4 0 11 7 20 15 20 8 0 15 -2 15 -4z"/>
<path d="M955 1855 c-16 -13 -26 -24 -22 -25 4 0 20 11 35 25 34 32 26 32 -13
0z"/>
<path d="M922 1800 c0 -14 2 -19 5 -12 2 6 2 18 0 25 -3 6 -5 1 -5 -13z"/>
<path d="M940 1816 c0 -3 9 -10 20 -16 11 -6 20 -8 20 -6 0 3 -9 10 -20 16
-11 6 -20 8 -20 6z"/>
<path d="M997 1779 c7 -7 15 -10 18 -7 3 3 -2 9 -12 12 -14 6 -15 5 -6 -5z"/>
<path d="M916 1755 c4 -8 8 -15 10 -15 2 0 4 7 4 15 0 8 -4 15 -10 15 -5 0 -7
-7 -4 -15z"/>
<path d="M947 1721 c-3 -12 1 -22 11 -26 20 -7 34 15 20 32 -15 18 -25 16 -31
-6z"/>
<path d="M1009 1689 c11 -32 34 -38 29 -8 -1 13 -11 25 -20 27 -15 3 -16 -1
-9 -19z"/>
<path d="M910 1683 c0 -5 5 -15 10 -23 7 -12 9 -10 7 8 -1 19 -17 33 -17 15z"/>
<path d="M950 1646 c0 -30 14 -41 29 -22 9 11 8 18 -4 30 -22 21 -25 20 -25
-8z"/>
<path d="M904 1625 c-10 -8 -14 -14 -7 -13 6 2 19 -6 28 -17 l16 -20 -9 20
c-5 11 -7 26 -5 33 6 16 1 15 -23 -3z"/>
<path d="M1010 1616 c0 -13 7 -26 15 -30 11 -4 15 1 15 18 0 13 -7 26 -15 30
-11 4 -15 -1 -15 -18z"/>
<path d="M1292 1599 c5 -12 -18 -28 -98 -67 -57 -29 -110 -52 -117 -52 -9 0
-11 -37 -9 -155 l3 -156 -31 16 c-18 9 -34 15 -36 12 -2 -2 13 -12 34 -21 l39
-18 122 61 c67 34 119 66 116 71 -3 6 -1 10 6 10 7 0 8 4 2 13 -5 6 -9 71 -8
142 0 102 -3 133 -14 145 -13 13 -14 13 -9 -1z m-22 -115 c0 -16 -5 -24 -12
-21 -16 5 -18 29 -3 39 15 11 15 11 15 -18z m-57 -34 c-6 -23 -28 -22 -28 1
-1 16 15 30 26 23 4 -2 5 -13 2 -24z m-60 -30 c-7 -25 -31 -27 -29 -2 1 19 16
33 27 26 4 -2 5 -13 2 -24z m117 -16 c0 -16 -5 -24 -12 -21 -16 5 -18 29 -3
39 15 11 15 11 15 -18z m-55 -24 c-2 -25 -11 -34 -24 -25 -8 4 -8 12 -1 26 14
25 27 24 25 -1z m-62 -47 c-3 -8 -11 -12 -17 -10 -14 5 -15 30 -2 39 13 9 26
-11 19 -29z m115 -3 c-3 -22 -23 -28 -24 -7 -1 17 6 27 17 27 6 0 9 -9 7 -20z
m-53 -20 c4 -6 1 -18 -6 -26 -14 -17 -31 0 -22 23 6 16 19 17 28 3z m-62 -34
c7 -17 -18 -42 -27 -27 -7 11 3 41 14 41 4 0 10 -6 13 -14z"/>
<path d="M844 1586 c-3 -8 -4 -23 -1 -33 4 -14 5 -13 6 5 0 13 5 20 11 17 6
-3 7 1 4 9 -8 20 -13 20 -20 2z"/>
<path d="M881 1566 c10 -9 89 -46 89 -41 0 5 -75 45 -86 45 -4 0 -5 -2 -3 -4z"/>
<path d="M971 1566 c10 -9 69 -36 69 -32 0 6 -55 36 -66 36 -4 0 -5 -2 -3 -4z"/>
<path d="M836 1515 c4 -8 8 -15 10 -15 2 0 4 7 4 15 0 8 -4 15 -10 15 -5 0 -7
-7 -4 -15z"/>
<path d="M980 1516 c0 -2 7 -7 16 -10 8 -3 12 -2 9 4 -6 10 -25 14 -25 6z"/>
<path d="M876 1495 c-7 -20 24 -51 35 -34 4 7 5 18 2 25 -7 19 -31 25 -37 9z"/>
<path d="M1020 1496 c0 -2 7 -7 16 -10 8 -3 12 -2 9 4 -6 10 -25 14 -25 6z"/>
<path d="M837 1470 c-3 -11 -1 -20 4 -20 5 0 9 9 9 20 0 11 -2 20 -4 20 -2 0
-6 -9 -9 -20z"/>
<path d="M940 1457 c0 -14 7 -28 16 -31 12 -5 15 0 12 21 -4 35 -28 43 -28 10z"/>
<path d="M996 1435 c-3 -8 2 -21 10 -30 21 -20 24 -19 24 9 0 27 -25 42 -34
21z"/>
<path d="M876 1421 c-3 -4 1 -17 9 -27 13 -16 16 -17 24 -4 7 9 6 19 -1 27
-12 15 -25 17 -32 4z"/>
<path d="M835 1400 c-3 -5 -1 -10 4 -10 6 0 11 5 11 10 0 6 -2 10 -4 10 -3 0
-8 -4 -11 -10z"/>
<path d="M939 1378 c11 -29 27 -34 34 -9 3 12 -1 22 -10 25 -26 11 -33 6 -24
-16z"/>
<path d="M841 1364 c0 -11 3 -14 6 -6 3 7 2 16 -1 19 -3 4 -6 -2 -5 -13z"/>
<path d="M997 1364 c-8 -9 11 -44 24 -44 6 0 9 10 7 22 -3 22 -19 34 -31 22z"/>
<path d="M877 1336 c-3 -8 1 -20 9 -27 17 -14 21 -11 26 16 4 23 -27 33 -35
11z"/>
<path d="M615 1309 c6 -9 3 -11 -9 -6 -10 4 -15 3 -11 -3 3 -5 -11 -16 -31
-25 -46 -19 -53 -19 -28 1 18 14 18 15 -3 4 -13 -6 -22 -16 -20 -22 1 -6 -4
-13 -12 -16 -8 -3 -11 0 -7 7 5 7 1 9 -8 5 -9 -3 -13 -10 -10 -15 3 -5 -6 -13
-19 -18 -14 -6 -28 -15 -32 -20 -7 -13 -25 -15 -25 -3 0 4 14 13 31 21 16 7
28 15 26 18 -6 6 -70 -31 -73 -42 -2 -6 48 -34 110 -63 l112 -54 0 -351 c-1
-194 -4 -357 -9 -364 -11 -17 31 -9 80 15 26 14 43 30 45 44 2 12 8 23 14 25
13 4 26 -51 20 -85 -3 -12 0 -22 5 -22 6 0 10 17 9 38 -1 20 -2 92 -1 159 l1
123 125 -66 c69 -36 125 -61 125 -55 0 5 -52 36 -115 67 -109 54 -136 78 -120
104 12 19 26 11 15 -10 -9 -18 -8 -18 20 -8 l30 10 0 248 c-1 207 -3 249 -16
254 -7 3 -14 1 -14 -4 0 -5 -34 -25 -75 -45 -75 -35 -103 -44 -75 -24 13 9 13
10 0 6 -8 -2 -14 -9 -13 -15 5 -22 -37 -35 -68 -21 -16 6 -28 14 -25 16 2 3
14 0 25 -7 14 -7 27 -8 38 -1 14 8 13 9 -10 10 -15 1 -38 1 -52 2 -14 1 -22 5
-19 10 3 5 -3 6 -12 2 -12 -4 -15 -3 -10 5 5 8 1 10 -10 5 -12 -4 -15 -3 -10
5 5 8 2 10 -9 6 -10 -4 -15 -2 -13 6 2 7 -4 15 -12 17 -13 4 -13 3 0 -6 13 -9
13 -11 -1 -11 -8 0 -24 7 -35 16 -16 13 -16 15 -1 10 9 -3 17 -1 17 4 0 17
155 89 179 83 11 -3 21 -9 21 -13 0 -10 20 -8 39 4 11 7 13 4 8 -15 -6 -23 -6
-24 10 -4 15 20 15 20 10 -3 -3 -12 -1 -20 4 -16 18 11 8 34 -22 50 -26 13
-33 14 -40 2 -7 -10 -9 -9 -9 4 0 10 -10 22 -21 29 -17 9 -20 8 -14 -2z m193
-216 c-5 -25 -28 -28 -28 -4 0 12 6 21 16 21 9 0 14 -7 12 -17z m-61 -33 c-2
-25 -27 -27 -27 -2 0 10 3 22 6 25 11 11 23 -2 21 -23z m-59 -27 c-5 -24 -27
-28 -25 -4 1 12 7 21 15 21 7 0 12 -8 10 -17z m118 -20 c-4 -25 -26 -28 -26
-4 0 12 6 21 14 21 8 0 13 -8 12 -17z m-60 -38 c-3 -8 -10 -15 -16 -15 -14 0
-12 37 3 43 15 5 21 -8 13 -28z m-58 -22 c-4 -24 -23 -27 -25 -3 -1 12 4 20
13 20 9 0 14 -7 12 -17z m119 -15 c-5 -28 -27 -36 -27 -10 0 20 8 32 22 32 4
0 6 -10 5 -22z m-57 -27 c0 -10 -7 -21 -15 -25 -15 -5 -22 24 -8 37 12 13 23
7 23 -12z m-60 -30 c0 -10 -6 -21 -14 -24 -9 -4 -12 2 -11 16 3 27 3 27 15 27
6 0 10 -9 10 -19z m118 -28 c-5 -25 -28 -28 -28 -4 0 12 6 21 16 21 9 0 14 -7
12 -17z m-70 -49 c-12 -12 -14 -11 -15 8 -1 12 3 26 10 30 17 11 22 -21 5 -38z
m-50 -11 c-4 -24 -23 -27 -25 -3 -1 12 4 20 13 20 9 0 14 -7 12 -17z m119 -13
c-2 -25 -27 -36 -27 -11 0 10 3 21 7 24 12 13 22 7 20 -13z m-69 -51 c-9 -6
-14 -3 -16 8 -2 8 2 19 10 24 9 6 14 3 16 -8 2 -8 -2 -19 -10 -24z m-48 -8 c0
-10 -6 -21 -14 -24 -9 -4 -12 2 -11 16 3 27 3 27 15 27 6 0 10 -9 10 -19z m58
-53 c-2 -12 -9 -23 -16 -26 -10 -3 -11 16 -3 46 1 1 6 2 12 2 6 0 9 -10 7 -22z
m-58 -27 c0 -10 -6 -21 -14 -24 -9 -4 -12 2 -11 16 3 27 3 27 15 27 6 0 10 -9
10 -19z m60 -45 c0 -2 -3 -11 -6 -20 -9 -23 -24 -20 -24 4 0 11 7 20 15 20 8
0 15 -2 15 -4z m-60 -40 c0 -8 -4 -18 -10 -21 -5 -3 -10 -4 -10 -1 0 2 -3 11
-6 20 -4 11 -1 16 10 16 9 0 16 -6 16 -14z m60 -45 c0 -20 -17 -37 -27 -28 -7
8 7 47 18 47 5 0 9 -9 9 -19z m-60 -30 c0 -10 -6 -21 -14 -24 -9 -4 -12 2 -11
16 3 27 3 27 15 27 6 0 10 -9 10 -19z"/>
<path d="M808 1304 c-35 -19 -36 -27 -2 -14 32 13 34 13 34 -3 0 -7 16 -21 35
-30 43 -20 47 -14 5 8 -18 9 -30 23 -30 35 0 24 -6 24 -42 4z"/>
<path d="M937 1314 c-8 -9 11 -44 23 -44 6 0 10 11 10 25 0 23 -18 34 -33 19z"/>
<path d="M995 1291 c-7 -13 12 -51 25 -51 6 0 10 8 10 19 0 23 -25 46 -35 32z"/>
<path d="M1380 1282 c0 -5 -70 -45 -155 -87 l-155 -77 0 -148 0 -148 -32 -13
c-18 -8 -38 -13 -44 -11 -7 1 -14 -4 -18 -13 -8 -22 -25 -18 -21 5 2 12 -4 24
-16 30 -16 9 -19 7 -19 -8 0 -11 7 -25 16 -33 14 -11 13 -14 -8 -25 -16 -9
-28 -9 -43 -2 -16 8 -18 8 -8 -2 10 -11 9 -16 -5 -27 -9 -8 30 10 88 38 57 29
109 52 115 52 6 0 38 -13 70 -30 l60 -30 -2 93 c-2 58 1 94 7 94 6 0 73 -32
150 -70 l141 -70 -1 -232 c-1 -128 2 -234 7 -235 4 -1 76 33 158 75 l150 77 2
244 c2 228 1 242 -15 229 -9 -8 -79 -45 -155 -82 l-138 -68 -150 73 c-82 41
-149 79 -149 86 0 7 6 10 14 7 8 -3 24 4 35 15 12 12 24 20 28 19 5 -1 19 2
32 6 19 7 21 10 10 18 -10 7 -8 9 8 5 47 -10 55 10 55 132 0 62 -3 115 -6 118
-3 4 -6 1 -6 -5z m-30 -100 c0 -4 -5 -14 -10 -22 -9 -13 -11 -13 -19 0 -6 9
-6 19 1 27 10 12 28 9 28 -5z m-60 -31 c0 -10 -7 -21 -15 -25 -15 -5 -22 24
-8 37 12 13 23 7 23 -12z m-64 -47 c-5 -13 -10 -14 -18 -6 -6 6 -8 18 -4 28 5
13 10 14 18 6 6 -6 8 -18 4 -28z m124 -2 c0 -4 -5 -14 -10 -22 -9 -13 -11 -13
-19 0 -6 9 -6 19 1 27 10 12 28 9 28 -5z m-180 -11 c0 -10 -7 -21 -15 -25 -16
-6 -19 3 -9 28 8 22 24 20 24 -3z m120 -20 c0 -10 -7 -21 -15 -25 -15 -5 -22
24 -8 37 12 13 23 7 23 -12z m-62 -33 c-4 -29 -26 -35 -23 -6 3 29 3 28 16 28
6 0 9 -10 7 -22z m-58 -28 c0 -11 -6 -20 -14 -20 -12 0 -14 14 -7 38 1 1 6 2
11 2 6 0 10 -9 10 -20z m-2 -80 c-3 -22 -23 -28 -24 -7 -1 17 6 27 17 27 6 0
9 -9 7 -20z m-2 -85 c-3 -8 -9 -15 -14 -15 -13 0 -11 34 2 42 13 9 20 -7 12
-27z m602 2 c-11 -21 -11 -21 -18 -2 -4 11 -3 23 3 27 19 12 28 -2 15 -25z
m-48 -6 c0 -17 -12 -41 -21 -41 -10 0 -12 33 -2 43 9 10 23 9 23 -2z m-60 -40
c0 -10 -6 -21 -14 -24 -9 -4 -12 2 -11 16 3 27 3 27 15 27 6 0 10 -9 10 -19z
m116 -18 c-4 -25 -26 -28 -26 -4 0 12 6 21 14 21 8 0 13 -8 12 -17z m-176 -13
c0 -11 -7 -20 -15 -20 -17 0 -18 2 -9 24 9 23 24 20 24 -4z m116 -22 c-1 -27
-26 -37 -26 -10 0 10 3 22 7 25 12 13 20 7 19 -15z m-53 -27 c-3 -11 -12 -22
-20 -25 -11 -5 -13 -2 -9 10 3 8 6 20 6 25 0 5 6 9 14 9 9 0 12 -7 9 -19z
m113 -16 c-1 -8 -8 -21 -14 -27 -9 -9 -12 -6 -12 15 0 17 5 27 14 27 8 0 13
-7 12 -15z m-180 -30 c-8 -21 -25 -11 -21 13 2 9 4 19 4 22 1 2 6 -1 12 -7 7
-7 9 -19 5 -28z m120 0 c-1 -8 -8 -21 -14 -27 -9 -9 -12 -6 -12 15 0 17 5 27
14 27 8 0 13 -7 12 -15z m-56 -35 c0 -11 -6 -20 -13 -20 -7 0 -13 9 -13 20 0
11 6 20 13 20 7 0 13 -9 13 -20z m115 -20 c0 -7 -6 -15 -12 -17 -8 -3 -13 4
-13 17 0 13 5 20 13 18 6 -3 12 -11 12 -18z m-172 3 c7 -6 -11 -33 -22 -33 -4
0 -7 9 -8 20 -2 19 16 27 30 13z m113 -28 c-1 -8 -8 -21 -14 -27 -9 -9 -12 -6
-12 15 0 17 5 27 14 27 8 0 13 -7 12 -15z m-56 -30 c0 -15 -6 -25 -14 -25 -16
0 -16 31 -1 42 15 11 15 10 15 -17z m113 -25 c-3 -11 -9 -20 -14 -20 -10 0
-12 33 -3 43 12 12 22 -3 17 -23z m-175 -17 c-6 -7 -15 -13 -20 -13 -11 0 -6
33 7 42 14 10 26 -14 13 -29z m118 -18 c-3 -8 -10 -15 -16 -15 -14 0 -12 37 3
43 15 5 21 -8 13 -28z m-60 -30 c-3 -8 -10 -15 -15 -15 -11 0 -9 19 4 40 11
17 20 -3 11 -25z m-62 -38 c-21 -12 -27 -3 -19 24 7 22 8 22 21 4 12 -17 12
-20 -2 -28z"/>
<path d="M755 1270 c3 -5 11 -10 16 -10 6 0 7 5 4 10 -3 6 -11 10 -16 10 -6 0
-7 -4 -4 -10z"/>
<path d="M768 1230 c42 -26 52 -26 19 0 -14 11 -31 20 -39 20 -7 0 2 -9 20
-20z"/>
<path d="M921 1236 c10 -9 69 -36 69 -32 0 6 -55 36 -66 36 -4 0 -5 -2 -3 -4z"/>
<path d="M770 1191 c0 -5 9 -7 20 -4 11 3 20 7 20 9 0 2 -9 4 -20 4 -11 0 -20
-4 -20 -9z"/>
<path d="M377 1156 c-4 -10 -5 -21 -2 -24 9 -9 17 6 13 25 -3 17 -4 17 -11 -1z"/>
<path d="M864 1148 c1 -13 11 -25 20 -26 12 -3 16 2 14 15 -6 35 -40 46 -34
11z"/>
<path d="M991 1156 c10 -9 69 -36 69 -32 0 6 -55 36 -66 36 -4 0 -5 -2 -3 -4z"/>
<path d="M917 1126 c-6 -15 11 -36 28 -36 15 0 15 33 1 42 -16 11 -23 10 -29
-6z"/>
<path d="M378 1085 c-2 -19 0 -35 4 -35 4 0 8 16 8 35 0 19 -2 35 -4 35 -2 0
-6 -16 -8 -35z"/>
<path d="M417 1099 c-3 -12 0 -22 9 -26 20 -8 27 2 19 26 -8 27 -21 27 -28 0z"/>
<path d="M1496 1112 c-2 -4 4 -8 14 -8 10 0 16 4 14 8 -3 4 -9 8 -14 8 -5 0
-11 -4 -14 -8z"/>
<path d="M982 1088 c2 -12 10 -23 18 -23 22 0 19 39 -3 43 -15 3 -18 -1 -15
-20z"/>
<path d="M1455 1090 c-3 -6 1 -7 9 -4 18 7 21 14 7 14 -6 0 -13 -4 -16 -10z"/>
<path d="M1540 1096 c0 -2 7 -7 16 -10 8 -3 12 -2 9 4 -6 10 -25 14 -25 6z"/>
<path d="M474 1077 c-7 -20 3 -37 22 -37 18 0 18 24 -1 40 -12 10 -16 9 -21
-3z"/>
<path d="M867 1076 c-6 -15 3 -30 21 -33 17 -4 15 34 -2 40 -8 3 -17 0 -19 -7z"/>
<path d="M1415 1070 c-3 -6 1 -7 9 -4 18 7 21 14 7 14 -6 0 -13 -4 -16 -10z"/>
<path d="M1397 1022 c-64 -31 -116 -59 -117 -62 0 -3 16 -13 35 -22 21 -9 32
-11 26 -4 -8 9 13 24 79 56 65 32 90 49 90 62 0 16 3 17 20 8 11 -6 20 -8 20
-6 0 3 -9 10 -19 15 -15 8 -42 -1 -134 -47z"/>
<path d="M1580 1076 c0 -2 7 -7 16 -10 8 -3 12 -2 9 4 -6 10 -25 14 -25 6z"/>
<path d="M534 1038 c0 -13 9 -24 18 -26 17 -3 19 13 5 36 -13 19 -24 14 -23
-10z"/>
<path d="M922 1038 c2 -13 11 -24 20 -26 11 -2 15 2 13 15 -2 10 -4 21 -4 26
-1 4 -8 7 -17 7 -10 0 -14 -7 -12 -22z"/>
<path d="M1561 1046 c10 -9 89 -46 89 -41 0 5 -75 45 -86 45 -4 0 -5 -2 -3 -4z"/>
<path d="M1640 1046 c0 -2 7 -7 16 -10 8 -3 12 -2 9 4 -6 10 -25 14 -25 6z"/>
<path d="M416 1031 c-9 -14 4 -41 20 -41 9 0 13 8 11 22 -4 24 -22 35 -31 19z"/>
<path d="M982 1008 c2 -13 11 -24 20 -26 11 -2 15 2 13 15 -2 10 -4 21 -4 26
-1 4 -8 7 -17 7 -10 0 -14 -7 -12 -22z"/>
<path d="M1680 1026 c0 -2 7 -7 16 -10 8 -3 12 -2 9 4 -6 10 -25 14 -25 6z"/>
<path d="M378 986 c-3 -14 -2 -30 2 -36 4 -6 7 5 8 25 2 40 -4 46 -10 11z"/>
<path d="M474 988 c1 -13 9 -24 19 -26 18 -4 21 6 11 32 -9 24 -31 19 -30 -6z"/>
<path d="M864 994 c1 -9 10 -20 19 -26 18 -10 22 -1 11 26 -8 21 -33 21 -30 0z"/>
<path d="M920 965 c0 -14 2 -25 4 -25 2 0 11 -3 19 -6 11 -4 14 0 12 13 -2 10
-4 21 -4 24 -1 4 -8 9 -16 13 -11 4 -15 -1 -15 -19z"/>
<path d="M534 958 c1 -13 10 -24 19 -26 16 -3 18 13 4 36 -13 20 -27 14 -23
-10z"/>
<path d="M415 938 c1 -13 9 -24 19 -26 12 -3 16 2 14 15 -3 17 -16 33 -29 33
-3 0 -5 -10 -4 -22z"/>
<path d="M980 936 c0 -30 26 -42 33 -15 3 12 -2 23 -14 29 -16 9 -19 7 -19
-14z"/>
<path d="M1686 938 c3 -4 11 -5 19 -1 21 7 19 12 -4 10 -11 0 -18 -5 -15 -9z"/>
<path d="M383 895 c0 -22 2 -30 4 -17 2 12 2 30 0 40 -3 9 -5 -1 -4 -23z"/>
<path d="M472 908 c4 -31 36 -37 34 -6 -1 13 -8 24 -19 26 -14 3 -18 -1 -15
-20z"/>
<path d="M864 918 c2 -19 16 -38 27 -38 15 0 3 45 -14 48 -8 2 -15 -3 -13 -10z"/>
<path d="M920 886 c0 -22 21 -41 33 -30 9 9 -5 42 -19 48 -10 4 -14 -2 -14
-18z"/>
<path d="M1381 906 c2 -2 15 -9 29 -15 24 -11 24 -11 6 3 -16 13 -49 24 -35
12z"/>
<path d="M534 878 c1 -20 26 -35 26 -15 0 4 0 14 0 22 0 8 -6 15 -14 15 -7 0
-13 -10 -12 -22z"/>
<path d="M1595 890 c-3 -6 1 -7 9 -4 18 7 21 14 7 14 -6 0 -13 -4 -16 -10z"/>
<path d="M415 863 c2 -10 4 -21 4 -25 1 -5 8 -8 16 -8 26 0 9 49 -17 50 -3 0
-5 -8 -3 -17z"/>
<path d="M980 856 c0 -24 25 -43 35 -26 7 12 -4 38 -21 44 -10 4 -14 -2 -14
-18z"/>
<path d="M1237 861 c-4 -16 9 -31 28 -31 11 0 10 40 -2 44 -20 8 -20 8 -26
-13z"/>
<path d="M1440 876 c0 -2 7 -7 16 -10 8 -3 12 -2 9 4 -6 10 -25 14 -25 6z"/>
<path d="M867 841 c-3 -11 1 -25 9 -32 20 -17 31 18 12 38 -14 13 -16 12 -21
-6z"/>
<path d="M1510 850 c-8 -5 -10 -10 -5 -10 6 0 17 5 25 10 8 5 11 10 5 10 -5 0
-17 -5 -25 -10z"/>
<path d="M375 840 c-3 -5 -1 -10 4 -10 6 0 11 5 11 10 0 6 -2 10 -4 10 -3 0
-8 -4 -11 -10z"/>
<path d="M474 828 c1 -13 9 -24 19 -26 13 -3 17 2 15 15 -6 35 -36 44 -34 11z"/>
<path d="M1290 831 c0 -12 2 -21 4 -21 2 0 11 -3 19 -6 10 -3 14 2 13 18 -1
30 -36 38 -36 9z"/>
<path d="M534 798 c1 -13 7 -23 16 -23 20 0 19 39 -1 43 -11 2 -16 -4 -15 -20z"/>
<path d="M1353 803 c0 -17 14 -32 28 -33 4 0 6 10 5 22 -1 27 -33 37 -33 11z"/>
<path d="M416 791 c-9 -14 4 -41 20 -41 9 0 13 8 11 22 -4 24 -22 35 -31 19z"/>
<path d="M1237 786 c-5 -14 10 -36 25 -36 4 0 8 11 8 25 0 27 -24 35 -33 11z"/>
<path d="M1416 793 c-10 -10 -7 -43 4 -43 6 0 13 0 17 0 4 0 8 5 9 12 2 16
-21 39 -30 31z"/>
<path d="M377 776 c-4 -10 -5 -21 -2 -24 9 -9 17 6 13 25 -3 17 -4 17 -11 -1z"/>
<path d="M975 736 c-44 -23 -93 -49 -110 -58 l-30 -16 30 -8 c17 -4 34 -12 38
-18 6 -7 7 -5 4 5 -4 12 17 27 84 59 63 31 89 49 89 62 0 25 -13 22 -105 -26z"/>
<path d="M474 748 c1 -27 33 -37 33 -11 0 17 -14 32 -28 33 -4 0 -6 -10 -5
-22z"/>
<path d="M1124 759 c3 -15 46 -32 46 -19 0 6 -9 10 -19 10 -11 0 -22 5 -24 10
-3 6 -4 5 -3 -1z"/>
<path d="M1290 751 c0 -21 26 -36 36 -20 9 15 -3 39 -21 39 -8 0 -15 -9 -15
-19z"/>
<path d="M1221 746 c2 -2 15 -9 29 -15 24 -11 24 -11 6 3 -16 13 -49 24 -35
12z"/>
<path d="M1354 736 c-6 -16 11 -46 27 -46 15 0 10 37 -6 50 -12 10 -16 9 -21
-4z"/>
<path d="M376 725 c-3 -8 -1 -15 4 -15 6 0 10 7 10 15 0 8 -2 15 -4 15 -2 0
-6 -7 -10 -15z"/>
<path d="M530 721 c0 -22 15 -35 29 -27 13 9 1 46 -15 46 -8 0 -14 -9 -14 -19z"/>
<path d="M1091 736 c10 -9 149 -76 149 -71 0 5 -136 75 -146 75 -4 0 -5 -2 -3
-4z"/>
<path d="M415 698 c2 -29 35 -38 35 -10 0 11 -7 23 -16 26 -21 8 -21 9 -19
-16z"/>
<path d="M1221 713 c-1 -17 16 -25 25 -12 4 7 3 9 -4 5 -5 -3 -13 0 -15 6 -4
9 -6 10 -6 1z"/>
<path d="M1410 695 c0 -14 2 -25 4 -25 2 0 11 -3 19 -6 11 -4 14 0 12 13 -2
10 -4 21 -4 24 -1 4 -8 9 -16 13 -11 4 -15 -1 -15 -19z"/>
<path d="M1300 706 c0 -2 7 -7 16 -10 8 -3 12 -2 9 4 -6 10 -25 14 -25 6z"/>
<path d="M379 693 c-4 -43 -3 -65 3 -69 4 -3 8 13 8 35 0 23 -2 41 -5 41 -3 0
-5 -3 -6 -7z"/>
<path d="M474 675 c-3 -8 -3 -19 1 -25 11 -17 35 -11 35 9 0 23 -29 36 -36 16z"/>
<path d="M1354 677 c16 -12 3 -21 -129 -87 -124 -62 -150 -72 -166 -62 -23 14
-29 15 -29 3 0 -5 9 -13 20 -16 20 -6 21 -13 18 -206 -3 -184 -2 -199 14 -199
10 0 83 33 163 72 l145 73 0 62 c0 44 4 63 13 63 8 0 9 2 1 8 -8 5 -12 52 -12
140 0 118 -2 135 -18 147 -11 8 -23 15 -28 15 -6 0 -2 -6 8 -13z m-9 -110 c1
-12 -14 -27 -26 -27 -10 0 -5 34 6 42 11 8 20 1 20 -15z m-59 -22 c-1 -8 -8
-21 -14 -27 -9 -9 -12 -7 -12 8 0 12 3 24 7 27 11 12 21 8 19 -8z m-56 -34 c0
-10 -7 -21 -15 -25 -15 -5 -22 24 -8 37 12 13 23 7 23 -12z m113 -7 c9 -9 -12
-46 -23 -39 -4 3 -6 14 -3 25 5 20 15 25 26 14z m-173 -23 c0 -11 -4 -22 -9
-25 -11 -7 -23 22 -15 35 9 16 24 10 24 -10z m117 -20 c1 -11 -5 -22 -13 -25
-9 -3 -14 1 -14 13 0 32 25 44 27 12z m-57 -30 c0 -10 -7 -21 -15 -25 -15 -5
-22 24 -8 37 12 13 23 7 23 -12z m116 -13 c-1 -7 -5 -19 -10 -27 -7 -10 -10
-11 -16 0 -5 6 -6 18 -3 26 6 17 32 17 29 1z m-176 -17 c0 -10 -6 -21 -14 -24
-9 -4 -12 2 -11 16 3 27 3 27 15 27 6 0 10 -9 10 -19z m117 -21 c-1 -11 -7
-20 -14 -20 -14 0 -18 22 -6 33 12 13 22 7 20 -13z m-57 -29 c0 -10 -6 -21
-14 -24 -9 -4 -13 2 -13 19 0 14 5 24 13 24 8 0 14 -9 14 -19z m120 -5 c0 -2
-3 -11 -6 -20 -9 -23 -24 -20 -24 4 0 11 7 20 15 20 8 0 15 -2 15 -4z m-180
-25 c0 -10 -6 -21 -13 -24 -8 -3 -13 4 -13 19 0 13 6 24 13 24 7 0 13 -9 13
-19z m118 -18 c-5 -25 -28 -28 -28 -4 0 12 6 21 16 21 9 0 14 -7 12 -17z m-62
-28 c-1 -8 -8 -21 -14 -27 -9 -9 -12 -6 -12 15 0 17 5 27 14 27 8 0 13 -7 12
-15z m-60 -42 c-4 -9 -10 -13 -14 -9 -10 11 -9 30 3 38 13 9 19 -7 11 -29z"/>
<path d="M1295 670 c-3 -5 -15 -10 -26 -10 -11 0 -18 -4 -14 -10 7 -11 55 8
55 22 0 11 -7 10 -15 -2z"/>
<path d="M534 638 c1 -13 8 -24 19 -26 13 -3 16 2 14 20 -5 31 -35 37 -33 6z"/>
<path d="M418 633 c-9 -18 -2 -38 15 -41 13 -3 16 2 14 19 -4 23 -22 37 -29
22z"/>
<path d="M1410 622 c0 -18 18 -42 31 -42 4 0 6 8 4 18 -2 9 -4 20 -4 23 -1 4
-8 9 -16 13 -10 3 -15 -1 -15 -12z"/>
<path d="M1185 610 c-3 -6 1 -7 9 -4 18 7 21 14 7 14 -6 0 -13 -4 -16 -10z"/>
<path d="M379 603 c-5 -34 -3 -93 3 -93 4 0 7 23 7 50 -1 28 -3 50 -5 50 -2 0
-4 -3 -5 -7z"/>
<path d="M472 588 c4 -29 38 -38 38 -10 0 11 -7 23 -16 26 -24 9 -26 8 -22
-16z"/>
<path d="M1145 590 c-3 -6 1 -7 9 -4 18 7 21 14 7 14 -6 0 -13 -4 -16 -10z"/>
<path d="M807 584 c-8 -9 11 -44 24 -44 6 0 9 10 7 22 -3 22 -19 34 -31 22z"/>
<path d="M1020 581 c0 -5 7 -11 15 -15 8 -3 15 -1 15 3 0 5 -7 11 -15 15 -8 3
-15 1 -15 -3z"/>
<path d="M530 561 c0 -22 15 -35 29 -27 13 9 1 46 -15 46 -8 0 -14 -9 -14 -19z"/>
<path d="M1094 564 c-18 -14 -18 -14 6 -3 31 14 36 19 24 19 -6 0 -19 -7 -30
-16z"/>
<path d="M418 553 c-9 -18 -2 -38 15 -41 13 -3 16 2 14 19 -4 23 -22 37 -29
22z"/>
<path d="M864 538 c1 -13 11 -25 20 -26 12 -3 16 2 14 15 -6 35 -40 46 -34 11z"/>
<path d="M1410 541 c0 -22 15 -35 30 -26 7 4 7 13 0 26 -14 25 -30 25 -30 0z"/>
<path d="M474 515 c-3 -8 -3 -19 1 -25 10 -17 31 -11 32 9 2 23 -25 37 -33 16z"/>
<path d="M920 510 c0 -10 8 -24 19 -29 15 -9 18 -7 17 12 -2 36 -36 52 -36 17z"/>
<path d="M807 491 c-3 -12 1 -22 10 -25 22 -9 23 -8 23 19 0 30 -25 34 -33 6z"/>
<path d="M381 483 c-1 -16 8 -27 32 -38 28 -14 30 -14 13 0 -11 8 -23 15 -27
15 -4 0 -10 10 -12 23 l-4 22 -2 -22z"/>
<path d="M532 478 c2 -12 10 -23 18 -23 22 0 19 39 -3 43 -15 3 -18 -1 -15
-20z"/>
<path d="M982 478 c5 -32 28 -35 28 -4 0 17 -5 26 -16 26 -10 0 -14 -7 -12
-22z"/>
<path d="M1412 466 c3 -32 22 -45 31 -22 3 8 -3 22 -15 32 -19 18 -20 18 -16
-10z"/>
<path d="M863 463 c0 -17 14 -32 28 -33 4 0 6 10 5 22 -1 27 -33 37 -33 11z"/>
<path d="M477 453 c-15 -14 -6 -40 16 -50 22 -10 23 -9 19 13 -5 26 -25 47
-35 37z"/>
<path d="M925 448 c-9 -23 1 -48 19 -48 16 0 16 15 -1 45 -11 18 -12 19 -18 3z"/>
<path d="M804 413 c1 -18 14 -33 29 -33 5 0 7 10 5 22 -4 28 -37 38 -34 11z"/>
<path d="M984 417 c-8 -23 3 -50 19 -44 13 4 11 36 -4 51 -5 6 -11 3 -15 -7z"/>
<path d="M860 386 c0 -13 6 -26 14 -29 21 -8 28 20 10 38 -21 20 -24 19 -24
-9z"/>
<path d="M917 374 c-7 -8 4 -44 14 -44 16 0 24 5 25 18 2 13 -30 35 -39 26z"/>
<path d="M1457 359 c7 -7 15 -10 18 -7 3 3 -2 9 -12 12 -14 6 -15 5 -6 -5z"/>
<path d="M807 330 c3 -11 12 -20 19 -20 8 0 14 9 14 20 0 13 -7 20 -19 20 -14
0 -18 -5 -14 -20z"/>
<path d="M980 327 c0 -14 7 -28 16 -31 12 -5 15 0 12 21 -4 35 -28 43 -28 10z"/>
<path d="M869 328 c-8 -16 -3 -48 7 -52 19 -7 27 10 14 34 -10 18 -18 25 -21
18z"/>
<path d="M759 305 c-9 -14 8 -55 23 -55 9 0 10 2 2 8 -7 4 -14 18 -16 32 -1
14 -6 21 -9 15z"/>
<path d="M920 282 c0 -16 28 -53 31 -41 6 32 4 41 -12 49 -16 9 -19 7 -19 -8z"/>
<path d="M980 252 c0 -11 7 -25 16 -33 14 -11 15 -9 12 16 -3 32 -28 47 -28
17z"/>
<path d="M828 223 c7 -3 16 -2 19 1 4 3 -2 6 -13 5 -11 0 -14 -3 -6 -6z"/>
<path d="M855 210 c-3 -5 -1 -10 4 -10 6 0 11 5 11 10 0 6 -2 10 -4 10 -3 0
-8 -4 -11 -10z"/>
<path d="M920 175 c14 -7 27 -11 30 -9 6 7 -22 24 -40 23 -9 0 -5 -6 10 -14z"/>
<path d="M964 158 c3 -15 26 -23 26 -8 0 6 -4 9 -9 6 -5 -4 -12 -1 -14 4 -3 6
-4 5 -3 -2z"/>
</g>
</svg>
